<?xml version="1.0" encoding="UTF-8"?>
<svg version="1.1" xmlns="http://www.w3.org/2000/svg" width="1024" height="1024">
<path d="M0 0 C337.92 0 675.84 0 1024 0 C1024 337.92 1024 675.84 1024 1024 C686.08 1024 348.16 1024 0 1024 C0 686.08 0 348.16 0 0 Z " fill="#FEFEFE" transform="translate(0,0)"/>
<path d="M0 0 C2.4375 1.30004883 2.4375 1.30004883 5 2.95703125 C5.95898193 3.56909424 6.91796387 4.18115723 7.90600586 4.81176758 C8.92702393 5.47200928 9.94804199 6.13225098 11 6.8125 C18.88300383 11.82863107 26.80120603 16.71735947 34.9375 21.3125 C35.80334717 21.80161865 36.66919434 22.2907373 37.5612793 22.79467773 C39.24930894 23.74742968 40.93753501 24.69983369 42.62597656 25.65185547 C46.88111424 28.06823456 51.09057804 30.56109203 55.30249023 33.05175781 C59.6440688 35.61730619 63.99574936 38.1645881 68.35546875 40.69921875 C69.4539917 41.33811035 70.55251465 41.97700195 71.68432617 42.63525391 C73.86998185 43.90567331 76.05632704 45.17490729 78.2434082 46.44287109 C79.2355835 47.0198877 80.22775879 47.5969043 81.25 48.19140625 C82.14203125 48.70904541 83.0340625 49.22668457 83.953125 49.76000977 C86 51 86 51 87 52 C87.16150412 54.62804272 87.25967873 57.23228826 87.31640625 59.86328125 C87.33832031 60.67432816 87.36023438 61.48537506 87.3828125 62.32099915 C87.49935769 66.81511285 87.5797563 71.30898023 87.63842773 75.80419922 C87.66446514 77.6442163 87.69123956 79.4842231 87.71875 81.32421875 C87.73200821 82.23909058 87.74526642 83.1539624 87.75892639 84.09655762 C87.86661755 89.58251887 88.24792333 94.94971969 88.90625 100.39453125 C90.32228199 114.07237789 90.32228199 114.07237789 88 120 C82.52735039 126.30410416 74.74499504 129.43163487 67.20166016 132.61328125 C61.75589305 134.97197861 56.68988055 137.9789656 51.55224609 140.93481445 C47.02951785 143.48414596 42.5607995 145.60634628 37.71484375 147.48046875 C28.37160518 151.3217092 28.37160518 151.3217092 21 158 C17.71148981 167.91111122 18.29225867 178.70203032 19 189 C14.93961799 187.50660206 11.35101457 185.5596952 7.625 183.3671875 C6.71633179 182.83389328 6.71633179 182.83389328 5.78930664 182.28982544 C4.50750373 181.53664492 3.22667849 180.78179835 1.94677734 180.02539062 C0.03566034 178.89607243 -1.87833538 177.77178145 -3.79296875 176.6484375 C-26.98603117 163.01396883 -26.98603117 163.01396883 -29 161 C-29.27439232 155.38776746 -29.24368033 149.78204977 -29.19750977 144.16430664 C-29.19086789 142.27202089 -29.2037061 140.37956079 -29.23657227 138.48754883 C-29.49717283 122.89381118 -29.49717283 122.89381118 -26.13110352 118.63598633 C-23.48659181 117.03279265 -20.91146301 116.03594084 -18 115 C-16.00442824 113.91877995 -14.0269745 112.80362273 -12.06640625 111.66015625 C-9.89938988 110.45921738 -7.73137854 109.26007254 -5.5625 108.0625 C-3.79897341 107.08582875 -2.03544856 106.10915437 -0.27201843 105.13230896 C1.56251223 104.11634005 3.39744909 103.10110762 5.23242188 102.0859375 C10.94974093 98.92183216 16.66064584 95.74617639 22.37210083 92.57150269 C25.26215101 90.9652067 28.15257535 89.35958456 31.04296875 87.75390625 C32.00227295 87.22095947 32.96157715 86.6880127 33.94995117 86.13891602 C34.62646729 85.76307373 35.3029834 85.38723145 36 85 C33.19131537 82.71671775 30.39911129 80.51494273 27.35546875 78.5546875 C26.68596191 78.1220459 26.01645508 77.6894043 25.32666016 77.24365234 C24.6207373 76.79199707 23.91481445 76.3403418 23.1875 75.875 C22.45063965 75.40143066 21.7137793 74.92786133 20.95458984 74.43994141 C18.63928891 72.95536986 16.32036605 71.47664074 14 70 C13.23929199 69.5153125 12.47858398 69.030625 11.69482422 68.53125 C9.50790092 67.14098824 7.31739841 65.75660842 5.125 64.375 C4.45364014 63.94944824 3.78228027 63.52389648 3.09057617 63.08544922 C0.41234132 61.40805931 -1.98959373 60.00346876 -5 59 C-6.96512748 59.75055629 -6.96512748 59.75055629 -9.0078125 61.03515625 C-10.22331787 61.74514771 -10.22331787 61.74514771 -11.46337891 62.46948242 C-12.34171387 62.99517822 -13.22004883 63.52087402 -14.125 64.0625 C-16.00970738 65.16527561 -17.89515799 66.26678172 -19.78125 67.3671875 C-21.28365234 68.24842285 -21.28365234 68.24842285 -22.81640625 69.14746094 C-28.38520529 72.38795535 -34.00465195 75.53754036 -39.625 78.6875 C-41.25139404 79.60511108 -41.25139404 79.60511108 -42.91064453 80.54125977 C-43.92239746 81.10901123 -44.93415039 81.6767627 -45.9765625 82.26171875 C-47.32355225 83.01908325 -47.32355225 83.01908325 -48.69775391 83.79174805 C-51 85 -51 85 -54 86 C-53.67 120.65 -53.34 155.3 -53 191 C-47.72 193.97 -42.44 196.94 -37 200 C-32.11095808 202.93751212 -27.23292558 205.88714317 -22.375 208.875 C-20.54799354 209.99789321 -18.72043669 211.1198345 -16.89102173 212.23880005 C-15.25842463 213.23741161 -13.62791472 214.23943318 -11.99755859 215.24169922 C-11.00836426 215.82193848 -10.01916992 216.40217773 -9 217 C-8.00693848 217.61246582 -7.01387695 218.22493164 -5.99072266 218.85595703 C-3.04219052 220.29063104 -3.04219052 220.29063104 0.02563477 219.38232422 C2.98307808 218.00786439 5.78383546 216.54496563 8.58984375 214.8828125 C9.62173828 214.27566406 10.65363281 213.66851563 11.71679688 213.04296875 C13.31104492 212.09357422 13.31104492 212.09357422 14.9375 211.125 C17.05067162 209.87741846 19.16395014 208.63001796 21.27734375 207.3828125 C25.26304295 205.02806002 25.26304295 205.02806002 29.24267578 202.66308594 C33.77461454 200 33.77461454 200 36 200 C35.98839844 199.07960938 35.97679687 198.15921875 35.96484375 197.2109375 C35.94589767 194.55307321 35.94943245 191.90311151 35.98046875 189.24609375 C36.01238972 186.5065236 35.94082633 183.84089215 35.80078125 181.09765625 C35.74974441 177.41907819 35.86744904 174.50440974 37 171 C39.6166151 168.73194859 42.09052512 167.71481356 45.31640625 166.4609375 C49.48759709 164.80661579 53.11493981 162.7003309 56.9375 160.375 C58.37268317 159.51912944 59.80891957 158.66502303 61.24609375 157.8125 C62.00132324 157.36390625 62.75655273 156.9153125 63.53466797 156.453125 C68.16780028 153.72224725 72.83317964 151.04776836 77.5 148.375 C78.42675537 147.84181152 79.35351074 147.30862305 80.30834961 146.75927734 C81.5943103 146.02378662 81.5943103 146.02378662 82.90625 145.2734375 C83.67259766 144.83435059 84.43894531 144.39526367 85.22851562 143.94287109 C87 143 87 143 88 143 C88.3952182 153.63051016 88.69658001 164.25925499 88.88080692 174.89563465 C88.96927153 179.83598868 89.08902826 184.77129367 89.2824707 189.70874023 C89.4682702 194.48140384 89.56902665 199.24924153 89.61291313 204.02524376 C89.64414578 205.83950544 89.70515782 207.65352394 89.79741096 209.46570778 C90.47002727 223.23582581 90.47002727 223.23582581 86.38624191 227.80593491 C82.36281005 231.14287393 77.9314776 233.56400243 73.2535677 235.85644436 C69.54964358 237.73597224 66.07228319 239.97247365 62.5625 242.1875 C61.05176387 243.10708498 59.54024839 244.02539328 58.02734375 244.94140625 C53.30154239 247.81074469 48.59441801 250.70982524 43.88891602 253.61230469 C38.86624502 256.70953707 33.83852734 259.79854437 28.81054688 262.887146 C26.92778085 264.04438955 25.04588052 265.20303201 23.1640625 266.36181641 C19.94412017 268.3438373 16.72063351 270.31998291 13.49481201 272.29241943 C12.25608431 273.05102137 11.01847752 273.81145692 9.78204346 274.5737915 C8.05824475 275.63615505 6.32999398 276.69128434 4.6015625 277.74609375 C3.61494629 278.35122803 2.62833008 278.9563623 1.61181641 279.57983398 C-2.49577896 281.81332457 -2.49577896 281.81332457 -5 282 C-7.2355957 281.06298828 -7.2355957 281.06298828 -9.67578125 279.5703125 C-10.58779297 279.02117187 -11.49980469 278.47203125 -12.43945312 277.90625 C-13.38755859 277.3184375 -14.33566406 276.730625 -15.3125 276.125 C-16.67084961 275.30128906 -16.67084961 275.30128906 -18.05664062 274.4609375 C-19.98272094 273.2921539 -21.905833 272.11846895 -23.82641602 270.94067383 C-33.78679872 264.84981437 -43.83543952 258.90490844 -53.8840332 252.96118164 C-79.48271342 237.81756099 -79.48271342 237.81756099 -85.92471313 233.45478821 C-88.78571581 231.61398052 -91.56979253 230.35056765 -94.75708008 229.17240906 C-100.49936537 226.78081697 -105.28048611 224.10424272 -109 219 C-112.58309195 208.66700046 -111.9394115 197.04286622 -111.88150024 186.23638368 C-111.8727623 182.75228834 -111.92063043 179.26981951 -111.96712112 175.78609389 C-112.07480875 167.554969 -112.08168765 159.32795313 -112.02636719 151.09643555 C-111.97144847 142.64376314 -112.09254119 134.20651187 -112.30024147 125.75655824 C-112.47276919 118.46596988 -112.53111738 111.18025787 -112.50130272 103.88770026 C-112.48483962 99.54637782 -112.50988712 95.21620843 -112.64691162 90.87677956 C-113.38443961 65.39530682 -113.38443961 65.39530682 -107.71088791 58.41367292 C-101.00619182 51.8766256 -92.27921356 48.17126173 -83.74621582 44.63849449 C-77.70314611 42.0885319 -72.17748918 38.61659814 -66.5625 35.25 C-64.43182427 34.01843128 -62.29928099 32.7900821 -60.1640625 31.56640625 C-51.56977256 26.60588026 -43.0355569 21.54456389 -34.50146484 16.48144531 C-32.0726167 15.04300587 -29.64070031 13.60995314 -27.20703125 12.1796875 C-26.45719971 11.73898926 -25.70736816 11.29829102 -24.93481445 10.84423828 C-23.50859033 10.00753288 -22.08138635 9.17249483 -20.65307617 8.33935547 C-17.70024731 6.61293077 -14.78623381 4.86288735 -11.90625 3.015625 C-11.0296875 2.45359375 -10.153125 1.8915625 -9.25 1.3125 C-8.53328125 0.83425781 -7.8165625 0.35601562 -7.078125 -0.13671875 C-4.2860308 -1.29659247 -2.89918944 -0.79841165 0 0 Z " fill="#5E25BD" transform="translate(247,362)"/>
<path d="M0 0 C4.37248477 3.72156471 8.58109753 7.70865085 11 13 C11 13.99 11 14.98 11 16 C8.07178145 17.70400669 5.131112 19.38524739 2.1875 21.0625 C0.93743164 21.79049805 0.93743164 21.79049805 -0.33789062 22.53320312 C-1.14033203 22.98759766 -1.94277344 23.44199219 -2.76953125 23.91015625 C-3.50792236 24.33433838 -4.24631348 24.75852051 -5.00708008 25.19555664 C-7 26 -7 26 -10 25 C-11.25390625 23.546875 -11.25390625 23.546875 -12.5625 21.75 C-17.72539598 15.47708138 -25.0942512 12.7036146 -33 11.76171875 C-41.638554 11.44114741 -50.68061942 13.67207375 -57.5 19.125 C-65.76526447 27.32051541 -67.92049445 38.12117406 -68.3125 49.375 C-68.06201175 59.70395649 -65.72495913 69.93296659 -59 78 C-50.29997175 85.62242913 -41.23109029 86.66625112 -30 86 C-24.62754176 85.29890208 -20.54682549 84.03121699 -16 81 C-15.34 81 -14.68 81 -14 81 C-14 74.73 -14 68.46 -14 62 C-21.59 62 -29.18 62 -37 62 C-37 55.73 -37 49.46 -37 43 C-21.49 43 -5.98 43 10 43 C10.2165625 54.1684375 10.2165625 54.1684375 10.4375 65.5625 C10.50122803 67.90029541 10.56495605 70.23809082 10.63061523 72.64672852 C10.65107417 74.51575921 10.66890826 76.38482127 10.68359375 78.25390625 C10.7373114 79.69002258 10.7373114 79.69002258 10.79211426 81.15515137 C10.79683833 86.36579803 10.36028983 89.25097201 6.6262207 93.04199219 C5.44563605 94.06153815 4.23857842 95.05175025 3 96 C1.66195312 97.02673828 1.66195312 97.02673828 0.296875 98.07421875 C-15.12525411 107.84314409 -31.89074898 111.07436651 -49.8515625 107.75 C-59.55014681 105.43966726 -67.69670328 101.83032132 -75 95 C-75.68707031 94.37738281 -76.37414062 93.75476563 -77.08203125 93.11328125 C-88.73716019 81.41358203 -92.89579166 63.8175641 -93.1875 47.8125 C-93.01173091 31.09490688 -89.51611602 17.29826254 -78.00390625 4.83984375 C-57.0174457 -15.14542785 -23.33339167 -16.90131303 0 0 Z " fill="#010101" transform="translate(882,452)"/>
<path d="M0 0 C58.81081081 0 58.81081081 0 70 9 C79.4343172 18.8340764 80.50686711 30.42087522 80.265625 43.4453125 C79.84069345 53.51452379 76.46871981 60.68983234 69.42578125 67.87109375 C59.45201551 76.62423759 48.7419778 77.31559553 35.9375 77.125 C30.0284375 77.063125 30.0284375 77.063125 24 77 C24 89.87 24 102.74 24 116 C16.08 116 8.16 116 0 116 C0 77.72 0 39.44 0 0 Z " fill="#010101" transform="translate(704,443)"/>
<path d="M0 0 C23.76 0 47.52 0 72 0 C72 6.6 72 13.2 72 20 C56.16 20 40.32 20 24 20 C24 28.91 24 37.82 24 47 C38.52 47 53.04 47 68 47 C68 53.93 68 60.86 68 68 C53.48 68 38.96 68 24 68 C24 76.91 24 85.82 24 95 C40.17 95 56.34 95 73 95 C73 101.93 73 108.86 73 116 C48.91 116 24.82 116 0 116 C0 77.72 0 39.44 0 0 Z " fill="#020202" transform="translate(379,443)"/>
<path d="M0 0 C10.5983479 10.91950996 9.54821764 26.03288202 9.6875 40.25 C9.73667158 43.77353222 9.7934634 47.29691743 9.8515625 50.8203125 C9.8708078 52.10364471 9.8708078 52.10364471 9.89044189 53.41290283 C10.03755527 62.00184173 10.53155246 70.55150279 11.0625 79.125 C3.4725 79.125 -4.1175 79.125 -11.9375 79.125 C-12.4325 75.66 -12.4325 75.66 -12.9375 72.125 C-13.45957031 72.52332031 -13.98164063 72.92164063 -14.51953125 73.33203125 C-24.12374363 80.24504576 -34.16765926 82.41004465 -45.9375 81.125 C-52.20494844 79.67468135 -56.8742964 77.22580114 -60.75390625 72.02734375 C-65.52576473 64.35772303 -66.31058347 56.19592878 -64.31640625 47.37890625 C-61.78323418 39.98204382 -57.35017431 35.35857589 -50.40625 31.84375 C-43.94244668 29.11804981 -37.90949073 27.99112376 -30.8828125 28.02734375 C-29.77421875 28.03056641 -28.665625 28.03378906 -27.5234375 28.03710938 C-26.38132812 28.04548828 -25.23921875 28.05386719 -24.0625 28.0625 C-22.31453125 28.06926758 -22.31453125 28.06926758 -20.53125 28.07617188 C-17.66661355 28.08791219 -14.80208367 28.1043343 -11.9375 28.125 C-12.22189243 26.51018483 -12.51689501 24.89723568 -12.81640625 23.28515625 C-12.97955322 22.38676025 -13.1427002 21.48836426 -13.31079102 20.56274414 C-14.11478037 17.43542286 -15.2996021 15.9635349 -17.9375 14.125 C-23.40295798 12.30318067 -28.94682185 12.43731119 -34.375 14.3125 C-37.09350999 15.93921426 -37.09350999 15.93921426 -38.26489258 18.70776367 C-39.9375 21.125 -39.9375 21.125 -42.3894043 21.69262695 C-43.81119995 21.65335083 -43.81119995 21.65335083 -45.26171875 21.61328125 C-46.80375977 21.58911133 -46.80375977 21.58911133 -48.37695312 21.56445312 C-49.44880859 21.52255859 -50.52066406 21.48066406 -51.625 21.4375 C-52.70845703 21.41494141 -53.79191406 21.39238281 -54.90820312 21.36914062 C-57.58601905 21.3101579 -60.26107027 21.22790307 -62.9375 21.125 C-62.12642332 12.85892066 -59.89298834 7.65492757 -53.75 1.875 C-39.65972309 -9.46520093 -14.76261512 -9.42294582 0 0 Z " fill="#020202" transform="translate(523.9375,479.875)"/>
<path d="M0 0 C8.25 0 16.5 0 25 0 C29.77701489 11.7073611 34.13511633 23.52644122 38.375 35.4375 C39.0218771 37.24813918 39.66901102 39.05868664 40.31640625 40.86914062 C41.88055705 45.2450454 43.44126159 49.62216451 45 54 C46.69116027 51.46325959 47.5838502 49.65736814 48.55639648 46.83911133 C48.84687363 46.00426712 49.13735077 45.16942291 49.43663025 44.3092804 C49.7450032 43.40928818 50.05337616 42.50929596 50.37109375 41.58203125 C50.85558739 40.1852137 50.85558739 40.1852137 51.34986877 38.76017761 C52.38309567 35.7789906 53.41051122 32.79584109 54.4375 29.8125 C55.4620322 26.8474088 56.48777311 23.88274053 57.51441956 20.91838074 C58.15256694 19.07458264 58.78931284 17.23029869 59.42442322 15.38545227 C59.86486717 14.10954475 59.86486717 14.10954475 60.31420898 12.80786133 C60.6948777 11.70224602 60.6948777 11.70224602 61.08323669 10.57429504 C62.34424956 7.03333834 63.68019952 3.51946793 65 0 C72.92 0 80.84 0 89 0 C87.60258994 6.28834526 86.09622958 11.93102794 83.83203125 17.87890625 C83.36441124 19.1295713 83.36441124 19.1295713 82.88734436 20.40550232 C81.86827779 23.12675154 80.84069276 25.84468724 79.8125 28.5625 C79.09670747 30.46532163 78.38138228 32.36831911 77.66650391 34.27148438 C76.56059505 37.21474826 75.45397593 40.15773223 74.3447876 43.09976196 C71.80618609 49.83589614 69.30284714 56.58430569 66.81640625 63.33984375 C65.82165557 66.03162702 64.82593576 68.72304905 63.8296814 71.41427612 C63.20066055 73.11795888 62.57431163 74.82263088 61.95083618 76.52835083 C50.55251364 107.68345684 50.55251364 107.68345684 38.0625 114.4375 C29.82421541 117.94758623 19.66151422 119.88717141 11 117 C11.66355044 110.25390382 12.71865793 103.65551466 14 97 C14.79664063 97.04640625 15.59328125 97.0928125 16.4140625 97.140625 C21.25437483 97.30550182 25.00377706 97.42695269 29.5 95.5 C32.64701314 92.35298686 34.31554705 89.08232126 36 85 C35.53995575 84.57950378 35.0799115 84.15900757 34.60592651 83.72576904 C31.99017517 80.91481683 30.86088371 77.34538428 29.4453125 73.828125 C29.10713501 73.00555206 28.76895752 72.18297913 28.42053223 71.33547974 C27.31521317 68.64305285 26.22020904 65.94655316 25.125 63.25 C24.36461712 61.39369555 23.60338052 59.53774059 22.84130859 57.68212891 C21.68336402 54.86212625 20.52601499 52.04189429 19.37149048 49.2204895 C15.83766133 40.58487934 12.24159244 31.97620837 8.625 23.375 C8.09122626 22.10322466 7.55753229 20.83141583 7.02392578 19.55957031 C6.5339209 18.39264648 6.04391602 17.22572266 5.5390625 16.0234375 C4.87245605 14.43354004 4.87245605 14.43354004 4.19238281 12.81152344 C3.20307775 10.47883771 2.18267292 8.1644452 1.1484375 5.8515625 C0 3 0 3 0 0 Z " fill="#010101" transform="translate(606,475)"/>
<path d="M0 0 C6.0465586 4.91357424 9.28260505 11.0583496 10.98046875 18.609375 C10.98046875 19.599375 10.98046875 20.589375 10.98046875 21.609375 C7.37657211 21.72538504 3.77315408 21.79655908 0.16796875 21.859375 C-0.85619141 21.89289063 -1.88035156 21.92640625 -2.93554688 21.9609375 C-3.91845703 21.97382813 -4.90136719 21.98671875 -5.9140625 22 C-6.82003174 22.02094727 -7.72600098 22.04189453 -8.65942383 22.06347656 C-11.7696062 21.46505521 -12.28545498 20.15334936 -14.01953125 17.609375 C-16.98788988 17.12529566 -16.98788988 17.12529566 -20.20703125 17.359375 C-21.29371094 17.39546875 -22.38039063 17.4315625 -23.5 17.46875 C-24.33144531 17.51515625 -25.16289063 17.5615625 -26.01953125 17.609375 C-27.2194117 22.89137093 -27.2194117 22.89137093 -25.01953125 27.609375 C-22.3162593 28.31004262 -22.3162593 28.31004262 -19.14453125 28.609375 C-7.53849823 30.22345906 0.94181761 31.45767985 8.98046875 40.609375 C13.44314247 46.60609281 13.60676045 55.21925259 12.578125 62.4296875 C10.61087983 70.0425771 6.59542947 75.01739992 0.16796875 79.421875 C-9.13685799 84.75898317 -21.10895168 85.18997039 -31.33203125 82.421875 C-38.75156849 79.84430849 -44.52119311 76.16409629 -49.01953125 69.609375 C-51.0210855 65.43678006 -52.01953125 62.28039993 -52.01953125 57.609375 C-44.42953125 57.609375 -36.83953125 57.609375 -29.01953125 57.609375 C-28.35953125 59.259375 -27.69953125 60.909375 -27.01953125 62.609375 C-24.82438252 63.5686907 -24.82438252 63.5686907 -22.01953125 63.609375 C-21.04693359 63.7021875 -21.04693359 63.7021875 -20.0546875 63.796875 C-16.61462507 64.00186941 -14.42065215 63.85396092 -11.45703125 62.046875 C-9.43859207 58.62430421 -10.1489184 56.38203069 -11.01953125 52.609375 C-15.11409555 50.72258725 -18.8639749 50.15108431 -23.33203125 49.671875 C-33.36016049 48.4450294 -40.83133421 46.03722975 -47.34375 37.96875 C-51.32737091 31.53904607 -50.793348 23.88484798 -50.01953125 16.609375 C-48.18719161 9.67033731 -42.96032672 4.08173718 -36.96484375 0.3203125 C-26.56570374 -5.13433075 -10.22920932 -6.26781156 0 0 Z " fill="#010101" transform="translate(593.01953125,477.390625)"/>
<path d="M0 0 C23.41463415 0 23.41463415 0 30.0625 5.5625 C33.26420516 9.59045165 33.2454396 12.76070618 33.3125 17.75 C33.34150391 18.45382812 33.37050781 19.15765625 33.40039062 19.8828125 C33.46274691 25.04399412 32.37926099 27.89925445 29 32 C24.75453083 35.00289283 21.27623483 36.12894688 16.11328125 36.09765625 C15.26805908 36.09515869 14.42283691 36.09266113 13.55200195 36.09008789 C12.48296631 36.08098389 11.41393066 36.07187988 10.3125 36.0625 C5.2078125 36.0315625 5.2078125 36.0315625 0 36 C0 24.12 0 12.24 0 0 Z " fill="#FAFAFA" transform="translate(728,463)"/>
<path d="M0 0 C1.03125 0.00322266 2.0625 0.00644531 3.125 0.00976562 C4.74535156 0.02233398 4.74535156 0.02233398 6.3984375 0.03515625 C8.03039062 0.04192383 8.03039062 0.04192383 9.6953125 0.04882812 C12.38807539 0.06063849 15.08072938 0.07710847 17.7734375 0.09765625 C18.00420673 9.4438101 18.00420673 9.4438101 13.7734375 14.09765625 C7.62071479 18.9654123 0.31452906 18.95550529 -7.2265625 18.09765625 C-9.70761463 17.11111268 -10.90323505 16.51336297 -12.5390625 14.41015625 C-13.56924496 10.94499707 -13.15651462 8.56947749 -12.2265625 5.09765625 C-8.17892591 1.15380521 -5.5387147 -0.0304325 0 0 Z " fill="#FBFBFB" transform="translate(494.2265625,523.90234375)"/>
<path d="M0 0 C2.32590854 3.63423209 2.16265833 6.77088331 2 11 C1.67 11 1.34 11 1 11 C0.67 14.3 0.34 17.6 0 21 C-1.98 20.01 -3.96 19.02 -6 18 C-5.34 17.67 -4.68 17.34 -4 17 C-3.34 17.33 -2.68 17.66 -2 18 C-1.93941406 17.03578125 -1.87882812 16.0715625 -1.81640625 15.078125 C-1.73261719 13.81484375 -1.64882813 12.5515625 -1.5625 11.25 C-1.48128906 9.99703125 -1.40007812 8.7440625 -1.31640625 7.453125 C-1.07484478 4.81682447 -0.75716066 2.51962706 0 0 Z " fill="#6932C0" transform="translate(265,528)"/>
<path d="M0 0 C0.33 0.66 0.66 1.32 1 2 C0.34 2 -0.32 2 -1 2 C-1 2.66 -1 3.32 -1 4 C-3.25 5.6875 -3.25 5.6875 -6 7 C-7.32 6.67 -8.64 6.34 -10 6 C-6.7 4.02 -3.4 2.04 0 0 Z " fill="#4C18B7" transform="translate(229,369)"/>
</svg>
